# xmcd
#
# Track frame offsets:
#       150
#       15426
#       41932
#       56092
#       71355
#
# Disc length: 1159 seconds
#
# Revision: 0
# Processed by: cddbd v1.5.2PL0 Copyright (c) Steve Scherf et al.
# Submitted via: WaveLab 4.01
#
DISCID=3d048505
DTITLE=Günter Dezelak (DJ Günni) - Guten Tag, Herr Doktor!
DYEAR=1900
DGENRE=
TTITLE0=Guten Tag Herr Doktor
TTITLE1=Hello Mister DJ (Maxi Edit)
TTITLE2=Mein grösster Fehler warst Du
TTITLE3=Drum schlaf ich lieber wieder ein
TTITLE4=Sugar Baby
EXTD=
EXTT0=
EXTT1=
EXTT2=
EXTT3=
EXTT4=
PLAYORDER=
